<?xml version="1.0" encoding="UTF-8" standalone="no"?><!DOCTYPE svg PUBLIC "-//W3C//DTD SVG 1.1//EN" "http://www.w3.org/Graphics/SVG/1.1/DTD/svg11.dtd"><svg width="100%" height="100%" viewBox="0 0 272 505" version="1.1" xmlns="http://www.w3.org/2000/svg" xmlns:xlink="http://www.w3.org/1999/xlink" xml:space="preserve" xmlns:serif="http://www.serif.com/" style="fill-rule:evenodd;clip-rule:evenodd;stroke-linejoin:round;stroke-miterlimit:2;"><g id="Capa-1" serif:id="Capa 1"><path d="M271.03,47.425c-0.799,24.763 1.331,31.77 -10.586,42.681l-120.346,112.207c32.075,-31.65 41.175,-75.857 27.123,-114.641c-5.956,-26.916 2.477,-57.032 17.636,-81.501c8.071,-3.949 16.726,-5.067 27.091,-5.853c-1.774,0.135 4.675,-0.235 6.509,-0.155c31.758,1.398 33.267,-4.003 44.894,6.643c0.458,0.42 0.897,0.849 1.318,1.289c10.272,10.724 6.753,10.11 6.593,36.944l-0.232,2.386Z" style="fill:#172c40;fill-rule:nonzero;"/><path d="M167.221,416.618c13.643,-37.655 5.442,-80.413 -24.4,-111.836l117.623,109.668c11.917,10.911 9.787,17.918 10.586,42.681l0.232,2.386c0.16,26.835 3.679,26.221 -6.593,36.945c-0.421,0.439 -0.86,0.869 -1.318,1.288c-11.627,10.646 -13.136,5.245 -44.895,6.643c-1.834,0.08 -8.282,-0.29 -6.508,-0.155c-13.897,-1.053 -24.721,-2.718 -35.182,-10.992c2.689,2.108 5.403,3.789 8.187,5.13c-0.008,-0.013 -0.016,-0.028 -0.025,-0.042c0.028,0.013 0.054,0.029 0.082,0.042c-15.258,-24.515 -23.766,-54.748 -17.789,-81.758" style="fill:#172c40;fill-rule:nonzero;"/><path d="M184.857,6.171c-15.159,24.47 -23.592,54.585 -17.636,81.502c14.052,38.783 4.952,82.991 -27.123,114.64c-1.079,1.064 -2.18,2.116 -3.31,3.151l-16.571,15.173c-5.608,5.135 -8.543,11.764 -8.906,18.487l0,25.45l-0.048,0c0.217,6.926 3.181,13.794 8.954,19.079l16.571,15.174c2.001,1.833 3.912,3.717 5.75,5.639c0.099,0.103 0.185,0.213 0.283,0.316l-0.339,-0.316c30.084,31.451 38.371,74.374 24.683,112.152c-5.974,26.995 2.523,57.209 17.763,81.716c-2.756,-1.334 -5.442,-3.001 -8.105,-5.088c-0.125,-0.098 -0.25,-0.189 -0.373,-0.29c-0.767,-0.612 -1.529,-1.271 -2.292,-1.958c-0.115,-0.102 -0.229,-0.188 -0.343,-0.292c-8.179,-7.489 -29.803,-25.835 -34.459,-29.778c-0.154,-0.13 -0.289,-0.244 -0.404,-0.342c-0.317,-0.268 -0.502,-0.426 -0.502,-0.426l-0.33,-0.301l-112.879,-103.359c-16.162,-14.799 -25.241,-34.871 -25.241,-55.799l0,-97.111c0,-20.929 9.079,-41 25.241,-55.8l112.879,-103.358l0.33,-0.302c0,0 26.177,-22.132 35.365,-30.545c3.676,-3.366 7.37,-5.828 11.195,-7.671c-0.052,0.084 -0.1,0.172 -0.153,0.257" style="fill:#6395f6;fill-rule:nonzero;"/><path d="M167.165,416.618c13.688,-37.779 5.401,-80.701 -24.683,-112.152l0.339,0.316c29.843,31.423 38.044,74.181 24.401,111.836c-5.978,27.01 2.531,57.243 17.789,81.758c-0.028,-0.013 -0.055,-0.029 -0.083,-0.042c-15.24,-24.507 -23.736,-54.722 -17.763,-81.716" style="fill:#6395f6;fill-rule:nonzero;"/></g></svg>