<?xml version="1.0" encoding="UTF-8"?>
<svg id="Layer_1" xmlns="http://www.w3.org/2000/svg" xmlns:xlink="http://www.w3.org/1999/xlink" version="1.1" viewBox="0 0 1000 262.4">
  <!-- Generator: Adobe Illustrator 29.3.0, SVG Export Plug-In . SVG Version: 2.1.0 Build 146)  -->
  <defs>
    <style>
      .st0 {
        fill: url(#linear-gradient);
      }

      .st1 {
        fill: #0074e7;
      }
    </style>
    <linearGradient id="linear-gradient" x1="873.1" y1="112" x2="789.2" y2="198.7" gradientTransform="translate(5.3 260.2) rotate(0) scale(1 -1)" gradientUnits="userSpaceOnUse">
      <stop offset="0" stop-color="#003467"/>
      <stop offset="1" stop-color="#0074e7"/>
    </linearGradient>
  </defs>
  <g>
    <path class="st1" d="M150.7,90.6c-4.1-5.2-9.6-9.4-16.4-12.3-.2,0-.4-.1-.5-.1-1.2-.8-2.5-1.3-3.8-1.5l-.9-.2c-5.7-1.7-12.4-2.5-19.8-2.5h-10.9c-7.5,0-14.1.8-19.8,2.4l-1,.2c-1.3.2-2.5.7-3.6,1.4-.2,0-.4.1-.6.2-6.8,2.9-12.3,7-16.4,12.2s-7,11.4-8.6,18.6c-1.6,6.9-2.4,14.6-2.4,22.9v55.9c0,7.8,6.2,14.2,14,14.2s14.2-6.3,14.2-14.1v-51.4c0-7,.6-13.1,1.6-18,.9-4.6,2.4-8.4,4.4-11.2,1.9-2.6,4.4-4.5,7.6-5.7.8-.3,1.9-.5,3-.8l1.4-.2c.3,0,.7-.1,1.1-.1,2.2-.2,4.5-.4,6.9-.5h4.9c.9,0,1.8,0,2.7.1,2.4.2,4.7.3,6.9.6.4,0,.8,0,1.1.1l1.4.2c1.1.2,2.2.5,3,.8,3.2,1.2,5.7,3.1,7.6,5.7,2,2.8,3.4,6.5,4.3,11.2.9,4.9,1.4,11,1.4,18v51.4c-.1,7.8,6.2,14.2,14,14.2s14.2-6.3,14.2-14.1v-55.9c.1-8.3-.6-16-2.2-22.9-1.6-7.2-4.5-13.4-8.5-18.6l-.3-.2Z"/>
    <path class="st1" d="M518.5,91.4c-4.1-5.2-9.6-9.4-16.4-12.3-.2,0-.4-.1-.5-.2-1.2-.8-2.5-1.3-3.8-1.5l-.9-.2c-5.7-1.7-12.4-2.5-19.8-2.5h-10.9c-7.5,0-14.1.8-19.8,2.4l-1,.2c-1.3.2-2.5.7-3.6,1.4-.2,0-.4.1-.6.2-6.8,2.9-12.3,7-16.4,12.2s-7,11.4-8.6,18.6c-1.6,6.9-2.4,14.6-2.4,22.9v55.2c-.1,7.9,5.9,14.5,13.4,14.9h.7c3.6,0,7.1-1.4,9.8-3.9,2.8-2.7,4.4-6.3,4.4-10.2v-51.4c.1-7,.6-13.1,1.6-18,.9-4.6,2.4-8.4,4.4-11.2,1.9-2.6,4.4-4.5,7.6-5.7.8-.3,1.9-.5,3-.8l1.4-.2c.3,0,.7-.1,1.1-.1,2.2-.2,4.5-.4,6.9-.5h4.9c.9,0,1.8,0,2.7.1,2.4.2,4.7.3,6.9.6.4,0,.8,0,1.1.1l1.4.2c1.1.2,2.2.5,3.1.8,3.2,1.2,5.7,3.1,7.6,5.7,2,2.8,3.4,6.5,4.3,11.2.9,5,1.4,11,1.4,18v50.7c0,7.9,5.9,14.5,13.4,14.9h.6c3.7,0,7.1-1.4,9.8-3.9,2.8-2.7,4.4-6.3,4.4-10.2v-55.9c0-8.3-.6-16-2.2-22.9-1.6-7.2-4.5-13.4-8.5-18.6h-.5Z"/>
    <path class="st1" d="M277.2,75h-14.9c-3.2,0-6,2.1-6.8,5.2-1.7,6.7-3.7,13.9-6,21.4-2.5,8.5-5.3,17-8.1,25.3-2.9,8.4-5.8,16.6-8.7,24.3-1.8,4.7-3.5,9.1-5.1,13.1-1.6-4.1-3.3-8.5-5-13.2-2.9-7.8-5.8-16-8.6-24.4-2.8-8.3-5.5-16.8-8-25.4-2.2-7.5-4.2-14.7-5.9-21.5-.8-3.1-3.5-5.3-6.7-5.3h-15.8c-2.2,0-4.2,1-5.6,2.7-1.3,1.8-1.8,4-1.2,6.1,5.7,20.9,12.4,41.4,20,60.8,7.7,19.8,15.3,37.9,22.5,53.8,1.1,2.5,3.6,4.1,6.3,4.1h15c2.7,0,5.2-1.5,6.4-4,7.3-15.9,15-34,22.8-53.7,7.6-19.3,14.4-39.7,20.2-60.7.6-2.1.2-4.4-1.2-6.1-1.3-1.8-3.4-2.8-5.6-2.8v.3Z"/>
    <path class="st1" d="M346.7,72.2c-7.4,0-14.7,1.4-21.7,4.1-7.1,2.8-13.4,7-18.9,12.6-5.4,5.6-9.8,12.6-13.1,20.9-3.3,8.3-4.9,18.1-4.9,29.2s1.2,18.2,3.7,26.2c2.5,8.1,6.4,15.2,11.7,21.1,5.3,5.9,12,10.7,20.1,14,8,3.3,17.6,5.1,28.5,5.1s16.3-.8,23.2-2.4c4.9-1.1,8.8-2.3,11.6-3.4,3.1-1.2,4.9-4.4,4.4-7.7l-1.8-11.1c-.3-2-1.5-3.8-3.3-4.9-1.1-.6-2.3-1-3.5-1s-1.6,0-2.3.4c-2.1.7-4.6,1.4-7.6,2.2-4.9,1.2-11,1.8-18.3,1.8-12.4,0-21.5-3-27.1-8.7-5.1-5.2-8.3-12.8-9.4-22.6l81.6.2.4-3.1c.2-1.4.3-2.9.3-4.5v-3.6c0-21.4-4.6-37.8-13.7-48.5-9.3-10.9-22.7-16.4-39.9-16.5v.2ZM318.6,123.9c.5-2.6,1.2-5.2,2.2-7.7,1.3-3.6,3.2-6.8,5.5-9.6,2.3-2.7,5.2-5,8.6-6.7,3.3-1.7,7.1-2.5,11.5-2.5,7.7,0,13.6,2.7,18,8.1,3.9,4.9,6.1,11.1,6.4,18.3h-52.2Z"/>
    <path class="st1" d="M14.5,74.4c-7.8,0-14.2,6.3-14.2,14.1l-.3,99.1c0,7.8,6.3,14.2,14.1,14.2s14.2-6.3,14.2-14.1l.3-99.1c0-7.8-6.3-14.2-14.1-14.2Z"/>
    <path class="st1" d="M677,75.9c-7.8,0-14.2,6.3-14.2,14.1l-.3,99.1c0,7.8,6.3,14.2,14.1,14.2s14.2-6.3,14.2-14.1l.3-99.1c0-7.8-6.3-14.2-14.1-14.2Z"/>
    <path class="st1" d="M677.1,23.9c-7.8,0-14.2,6.3-14.2,14.1v14.9c0,7.8,6.2,14.2,14.1,14.2s14.2-6.3,14.2-14.1v-14.9c0-7.8-6.2-14.2-14.1-14.2Z"/>
    <path class="st1" d="M14.6,22.4C6.8,22.4.4,28.7.4,36.5v14.9c0,7.8,6.2,14.2,14.1,14.2s14.2-6.3,14.2-14.1v-14.9c0-7.8-6.2-14.2-14.1-14.2Z"/>
    <path class="st1" d="M632.2,178.2l-50.9-.3c3.8-6.2,8.1-12.6,12.7-19.1,6.1-8.6,12.2-16.9,18.3-24.6,6-7.7,11.8-15,17.1-21.4,4.8-5.8,8.8-10.5,11.9-13.9,1.2-1.3,1.8-3,1.8-4.7v-11.2c0-3.9-3.1-7.1-7.1-7.1l-77.5-.2c-6.9,0-12.5,5.6-12.5,12.5s5.6,12.5,12.5,12.5l46.2.3c-3,3.7-6.3,7.8-9.9,12.4-5.7,7.2-11.6,15-17.5,23-6,8.1-11.7,16.3-17.2,24.5-5.2,7.9-9.7,15.2-13.4,21.9-.6,1.1-.9,2.2-.9,3.4v9.8c0,3.9,3.1,7.1,7.1,7.1l79.3.2c6.9,0,12.5-5.6,12.5-12.5s-5.6-12.5-12.5-12.5h0Z"/>
    <path class="st1" d="M796.2,153.2c-1.9-4.4-4.6-8.2-8.2-11.3-3.4-3-7.5-5.6-12.3-7.9-4.5-2.1-9.7-4.3-15.6-6.5-4.2-1.5-7.8-3-10.8-4.3-2.8-1.3-5.2-2.7-7-4.1-1.7-1.3-2.9-2.7-3.6-4.2-.3-.5-.5-1.1-.7-1.7-1.5-5.3,2-11.2,7.8-13.3,3.2-1.1,6.8-1.7,10.7-1.7,6.6,0,12.3.6,16.9,1.9l1.4.4c1.1.3,2.3.5,3.4.5,5.6,0,10.6-3.7,12.2-9.1.9-3.2.5-6.6-1.1-9.6-1.6-2.9-4.4-5.1-7.7-6-1.4-.3-3-.7-4.7-1-3-.6-6.3-1-9.7-1.4-3.5-.4-7.1-.6-10.6-.6-14.3,0-25.9,3.4-34.4,10.1-8.7,6.9-13.2,16.3-13.2,28.1s1,11,3.1,15.2c2.1,4.1,4.8,7.7,8.2,10.6,3.3,2.8,7.3,5.3,11.8,7.4,4.2,1.9,8.7,3.9,13.4,5.8,9.3,3.8,15.9,7.1,19.8,10,3.2,2.4,4.8,5.6,4.8,9.7s-1.4,6.3-4.6,8c-3.7,2-9.7,3-17.9,3s-15.4-.9-20.4-2.6l-2.5-.9c-1.2-.3-2.3-.5-3.5-.5-2.2,0-4.3.6-6.3,1.6-3,1.7-5.2,4.4-6.1,7.7-.9,3.3-.5,6.8,1.1,9.8,1.7,3,4.4,5.2,7.7,6.1,1.2.4,2.5.8,4,1.2,6.3,1.9,15.1,2.8,26,2.9,15.9,0,28.5-3,37.3-9.1,9.2-6.4,13.9-15.8,14-28.1s-.9-11.5-2.8-15.9v-.2Z"/>
  </g>
  <g>
    <path class="st0" d="M841.3,255.3c9.5,9.5,24.9,9.6,34.4,0l89.8-89.4,34.5-34.4-34.4-34.5L876.2,7.2c-9.5-9.5-24.9-9.6-34.4,0h0c-9.5,9.5-9.6,24.9,0,34.4l43.5,43.7c25.3,25.4,25.2,66.6-.2,91.9l-43.7,43.5c-9.5,9.5-9.6,24.9,0,34.4h0v.2Z"/>
    <path class="st1" d="M890.6,171.1c-.5.5-.8,1.1-1.3,1.6-.3.4-.7.8-1.1,1.2-1,1.2-2.1,2.3-3.2,3.4l-43.2,43c-9.3,9.3-10.2,24.5-1.4,34.2,9.4,10.3,25.4,10.6,35.2.9l89.8-89.4,34.5-34.3h0c0,0-34.3-34.6-34.3-34.6L876.2,7.3c33.7,33.9,65.2,113.1,14.3,163.8h.1Z"/>
  </g>
</svg>