<?xml version="1.0" encoding="UTF-8" standalone="no"?>
<!DOCTYPE svg PUBLIC "-//W3C//DTD SVG 1.1//EN" "http://www.w3.org/Graphics/SVG/1.1/DTD/svg11.dtd">
<svg width="100%" height="100%" viewBox="0 0 2763 1324" version="1.1" xmlns="http://www.w3.org/2000/svg" xmlns:xlink="http://www.w3.org/1999/xlink" xml:space="preserve" xmlns:serif="http://www.serif.com/" style="fill-rule:evenodd;clip-rule:evenodd;stroke-linejoin:round;stroke-miterlimit:2;">
    <g transform="matrix(1,0,0,1,-702.247917,-1421.385127)">
        <g transform="matrix(4.166667,0,0,4.166667,0,0)">
            <g id="Capa-1" serif:id="Capa 1">
                <g transform="matrix(1,0,0,1,405.0431,492.6951)">
                    <path d="M0,-3.291C-2.391,-7.563 -5.52,-10.818 -9.385,-13.057C-13.252,-15.293 -17.422,-16.414 -21.897,-16.414C-26.374,-16.414 -30.545,-15.32 -34.41,-13.133C-38.277,-10.944 -41.405,-7.74 -43.795,-3.52C-46.186,0.702 -47.381,5.712 -47.381,11.511C-47.381,17.309 -46.186,22.397 -43.795,26.77C-41.405,31.145 -38.25,34.476 -34.333,36.765C-30.418,39.054 -26.272,40.198 -21.897,40.198C-17.422,40.198 -13.252,39.08 -9.385,36.841C-5.52,34.605 -2.391,31.324 0,26.999C2.389,22.676 3.586,17.615 3.586,11.816C3.586,6.017 2.389,0.982 0,-3.291M-59.968,-10.92C-56.459,-17.43 -51.678,-22.491 -45.625,-26.104C-39.574,-29.714 -32.833,-31.521 -25.406,-31.521C-19.914,-31.521 -14.496,-30.324 -9.156,-27.935C-3.815,-25.543 0.432,-22.365 3.586,-18.398L3.586,-58.987L21.134,-58.987L21.134,55.696L3.586,55.696L3.586,41.266C0.737,45.336 -3.204,48.693 -8.24,51.337C-13.276,53.981 -19.05,55.305 -25.559,55.305C-32.884,55.305 -39.574,53.45 -45.625,49.735C-51.678,46.023 -56.459,40.834 -59.968,34.171C-63.479,27.509 -65.234,19.955 -65.234,11.511C-65.234,3.068 -63.479,-4.409 -59.968,-10.92" style="fill:rgb(23,44,64);fill-rule:nonzero;"/>
                </g>
                <g transform="matrix(1,0,0,1,0,-17.901)">
                    <path d="M465.657,566.292L448.262,566.292L448.262,480.448L465.657,480.448L465.657,566.292ZM449.1,470.683C446.964,468.546 445.896,465.903 445.896,462.748C445.896,459.596 446.964,456.949 449.1,454.813C451.237,452.677 453.88,451.609 457.035,451.609C460.086,451.609 462.681,452.677 464.817,454.813C466.954,456.949 468.022,459.596 468.022,462.748C468.022,465.903 466.954,468.546 464.817,470.683C462.681,472.819 460.086,473.887 457.035,473.887C453.88,473.887 451.237,472.819 449.1,470.683" style="fill:rgb(23,44,64);fill-rule:nonzero;"/>
                </g>
                <g transform="matrix(1,0,0,1,550.8427,519.7701)">
                    <path d="M0,-30.366C-2.391,-34.638 -5.52,-37.893 -9.385,-40.132C-13.252,-42.368 -17.421,-43.489 -21.896,-43.489C-26.374,-43.489 -30.544,-42.395 -34.409,-40.208C-38.277,-38.019 -41.405,-34.815 -43.793,-30.595C-46.185,-26.373 -47.38,-21.363 -47.38,-15.564C-47.38,-9.766 -46.185,-4.678 -43.793,-0.305C-41.405,4.07 -38.25,7.401 -34.333,9.69C-30.418,11.979 -26.272,13.123 -21.896,13.123C-17.421,13.123 -13.252,12.005 -9.385,9.766C-5.52,7.53 -2.391,4.249 0,-0.076C2.389,-4.399 3.586,-9.46 3.586,-15.259C3.586,-21.058 2.389,-26.093 0,-30.366M-59.968,-37.995C-56.459,-44.505 -51.678,-49.566 -45.624,-53.179C-39.574,-56.789 -32.883,-58.596 -25.558,-58.596C-18.947,-58.596 -13.175,-57.298 -8.24,-54.705C-3.306,-52.11 0.635,-48.88 3.586,-45.015L3.586,-57.222L21.135,-57.222L21.135,28.23L3.586,28.23L3.586,14.344C0.635,18.311 -3.382,21.618 -8.469,24.262C-13.556,26.906 -19.355,28.23 -25.864,28.23C-33.088,28.23 -39.7,26.375 -45.701,22.66C-51.704,18.948 -56.459,13.759 -59.968,7.096C-63.478,0.434 -65.233,-7.12 -65.233,-15.564C-65.233,-24.007 -63.478,-31.484 -59.968,-37.995" style="fill:rgb(23,44,64);fill-rule:nonzero;"/>
                </g>
                <g transform="matrix(1,0,0,1,711.2526,542.5065)">
                    <path d="M0,-77.212C5.239,-74.465 9.36,-70.395 12.361,-65.005C15.36,-59.612 16.863,-53.102 16.863,-45.473L16.863,4.12L-0.381,4.12L-0.381,-42.879C-0.381,-50.406 -2.264,-56.178 -6.027,-60.198C-9.791,-64.215 -14.929,-66.225 -21.439,-66.225C-27.95,-66.225 -33.112,-64.215 -36.926,-60.198C-40.741,-56.178 -42.65,-50.406 -42.65,-42.879L-42.65,4.12L-59.892,4.12L-59.892,-42.879C-59.892,-50.406 -61.776,-56.178 -65.538,-60.198C-69.303,-64.215 -74.442,-66.225 -80.95,-66.225C-87.462,-66.225 -92.624,-64.215 -96.439,-60.198C-100.254,-56.178 -102.16,-50.406 -102.16,-42.879L-102.16,4.12L-119.556,4.12L-119.556,-79.959L-102.16,-79.959L-102.16,-70.345C-99.313,-73.802 -95.702,-76.499 -91.327,-78.433C-86.954,-80.364 -82.273,-81.332 -77.288,-81.332C-70.573,-81.332 -64.572,-79.906 -59.281,-77.06C-53.993,-74.21 -49.924,-70.09 -47.075,-64.699C-44.533,-69.785 -40.565,-73.829 -35.172,-76.831C-29.781,-79.83 -23.983,-81.332 -17.776,-81.332C-11.165,-81.332 -5.241,-79.959 0,-77.212" style="fill:rgb(23,44,64);fill-rule:nonzero;"/>
                </g>
                <g transform="matrix(1,0,0,1,800.4072,479.4856)">
                    <path d="M0,50.203C3.915,48.067 7.095,44.862 9.536,40.59C11.979,36.317 13.2,31.129 13.2,25.025C13.2,18.922 12.029,13.76 9.69,9.537C7.349,5.317 4.246,2.137 0.381,0C-3.486,-2.136 -7.656,-3.205 -12.132,-3.205C-16.609,-3.205 -20.753,-2.136 -24.568,0C-28.383,2.137 -31.411,5.317 -33.646,9.537C-35.886,13.76 -37.003,18.922 -37.003,25.025C-37.003,34.081 -34.691,41.074 -30.06,46.007C-25.433,50.942 -19.608,53.408 -12.589,53.408C-8.113,53.408 -3.917,52.339 0,50.203M-34.104,63.097C-40.513,59.488 -45.549,54.399 -49.211,47.838C-52.873,41.276 -54.705,33.673 -54.705,25.025C-54.705,16.48 -52.823,8.903 -49.058,2.289C-45.296,-4.323 -40.159,-9.408 -33.646,-12.97C-27.138,-16.53 -19.864,-18.311 -11.826,-18.311C-3.791,-18.311 3.484,-16.53 9.994,-12.97C16.505,-9.408 21.642,-4.323 25.406,2.289C29.169,8.903 31.053,16.48 31.053,25.025C31.053,33.57 29.119,41.15 25.254,47.762C21.387,54.375 16.123,59.488 9.462,63.097C2.797,66.71 -4.554,68.514 -12.589,68.514C-20.524,68.514 -27.696,66.71 -34.104,63.097" style="fill:rgb(23,44,64);fill-rule:nonzero;"/>
                </g>
                <g transform="matrix(1,0,0,1,339.2164,436.2524)">
                    <path d="M0,-65.255C-0.503,-49.661 0.838,-45.248 -6.666,-38.377L-82.452,32.283C-62.253,12.352 -56.523,-15.487 -65.372,-39.91C-69.123,-56.86 -63.812,-75.825 -54.266,-91.234C-49.183,-93.721 -43.733,-94.425 -37.206,-94.92C-38.323,-94.835 -34.262,-95.068 -33.107,-95.017C-13.108,-94.137 -12.157,-97.538 -4.835,-90.834C-4.547,-90.57 -4.271,-90.299 -4.005,-90.022C2.463,-83.269 0.247,-83.656 0.146,-66.758L0,-65.255Z" style="fill:rgb(23,44,64);fill-rule:nonzero;"/>
                </g>
                <g transform="matrix(1,0,0,1,273.8447,590.8591)">
                    <path d="M0,12.631C8.592,-11.081 3.427,-38.008 -15.366,-57.796L58.705,11.266C66.21,18.137 64.868,22.549 65.372,38.143L65.518,39.646C65.618,56.544 67.835,56.158 61.366,62.911C61.101,63.188 60.824,63.458 60.536,63.722C53.214,70.427 52.264,67.026 32.265,67.906C31.11,67.956 27.049,67.723 28.166,67.808C19.415,67.145 12.598,66.097 6.011,60.886C7.704,62.213 9.413,63.272 11.167,64.117C11.161,64.108 11.156,64.099 11.151,64.09C11.168,64.099 11.185,64.109 11.202,64.117C1.594,48.679 -3.764,29.64 0,12.631" style="fill:rgb(23,44,64);fill-rule:nonzero;"/>
                </g>
                <g transform="matrix(1,0,0,1,284.9505,654.7872)">
                    <path d="M0,-309.769C-9.546,-294.36 -14.857,-275.395 -11.106,-258.445C-2.257,-234.022 -7.988,-206.183 -28.186,-186.252C-28.865,-185.582 -29.559,-184.92 -30.271,-184.268L-40.706,-174.713C-44.237,-171.479 -46.086,-167.305 -46.314,-163.071L-46.314,-147.044L-46.344,-147.044C-46.208,-142.683 -44.341,-138.358 -40.706,-135.029L-30.271,-125.474C-29.01,-124.32 -27.807,-123.133 -26.649,-121.923C-26.587,-121.858 -26.533,-121.789 -26.471,-121.724L-26.685,-121.923C-7.74,-102.117 -2.521,-75.087 -11.141,-51.297C-14.903,-34.298 -9.553,-15.271 0.045,0.162C-1.691,-0.678 -3.382,-1.728 -5.059,-3.042C-5.138,-3.104 -5.216,-3.161 -5.294,-3.225C-5.777,-3.61 -6.257,-4.025 -6.738,-4.457C-6.81,-4.522 -6.882,-4.576 -6.954,-4.642C-12.104,-9.358 -25.721,-20.911 -28.654,-23.394C-28.75,-23.476 -28.835,-23.548 -28.908,-23.609C-29.107,-23.778 -29.224,-23.877 -29.224,-23.877L-29.432,-24.067L-100.516,-89.155C-110.693,-98.475 -116.411,-111.115 -116.411,-124.294L-116.411,-185.448C-116.411,-198.627 -110.693,-211.267 -100.516,-220.587L-29.432,-285.675L-29.224,-285.865C-29.224,-285.865 -12.74,-299.802 -6.954,-305.1C-4.639,-307.22 -2.313,-308.77 0.096,-309.931C0.063,-309.878 0.033,-309.822 0,-309.769" style="fill:rgb(99,149,246);fill-rule:nonzero;"/>
                </g>
                <g transform="matrix(1,0,0,1,273.809,584.3501)">
                    <path d="M0,19.14C8.62,-4.65 3.401,-31.68 -15.544,-51.486L-15.33,-51.287C3.463,-31.499 8.627,-4.572 0.036,19.14C-3.728,36.149 1.63,55.188 11.238,70.626C11.22,70.618 11.204,70.608 11.186,70.599C1.589,55.166 -3.762,36.139 0,19.14" style="fill:rgb(99,149,246);fill-rule:nonzero;"/>
                </g>
            </g>
        </g>
    </g>
</svg>
